mtllib materials.mtl
v 0.06833336 -0.1630112 -0.06833339
v 0.06833336 -0.1630112 0.07166661
v 0.1383334 -0.1302122 0.03886748
v 0.1383334 -0.1302122 -0.03553425
v -0.07166663 -0.1630112 -0.06833339
v -0.07166663 -0.09301114 -0.06833339
v -0.07166663 -0.02301109 -0.06833339
v -0.1416666 -0.05581021 -0.03553425
v -0.1416666 -0.1302119 -0.03553425
v -0.05836663 -0.1930112 -0.05503333
v 0.05503336 -0.1930112 -0.05503331
v 0.06833336 -0.02301109 -0.06833339
v 0.06833336 -0.02301109 0.07166661
v -0.07166663 -0.02301109 0.07166661
v 0.06833336 -0.09301114 -0.06833339
v 0.03333336 -0.09301114 -0.06833339
v -0.03666663 -0.09301114 -0.06833339
v -0.07166663 -0.1630112 0.07166661
v -0.07166663 -0.09301114 0.07166661
v -0.03666663 -0.09301114 0.07166661
v 0.03333336 -0.09301114 0.07166661
v 0.06833336 -0.09301114 0.07166661
v 0.1383334 -0.05581033 0.03886748
v 0.09114486 0.0009858608 -0.04936338
v 0.09114486 0.0009858608 0.05269661
v 0.1383334 -0.05581033 -0.03553425
v 0.1780758 -0.2038568 0.01350757
v 0.1780758 -0.2038568 -0.01017427
v 0.2183334 -0.06860375 0.02607409
v 0.2183334 -0.1174189 0.02607409
v 0.2183334 -0.06860375 -0.02274088
v 0.2183334 -0.1174189 -0.02274088
v 0.2035396 -0.1997846 0.009435467
v 0.2035396 -0.1997846 -0.006102178
v -0.09447809 0.0009860992 0.05269661
v -0.09447807 0.0009860992 -0.04936339
v -0.1416666 -0.1302119 0.03886748
v -0.1416666 -0.05581021 0.03886748
v -0.2116666 -0.07104433 -0.02030011
v -0.2116666 -0.1149777 -0.02030011
v -0.2116666 -0.07104433 0.02363336
v -0.2116666 -0.1149777 0.02363336
v -0.1798016 -0.2040889 -0.0131503
v -0.1798016 -0.2040889 0.01648367
v -0.2076824 -0.1980213 -0.007082585
v -0.2076824 -0.1980213 0.01041596
v -0.05836664 -0.1930112 0.05836666
v 0.05503336 -0.1930112 0.05836667
v -0.1455081 -0.02292442 0.02878604
v -0.1455081 -0.02292442 -0.02545282
v 0.1421749 -0.02292478 -0.02545281
v 0.1421749 -0.02292478 0.02878604
v -0.03666663 -0.05801117 0.07166661
v 0.03333336 -0.05801117 0.07166661
v 0.02129686 -0.06402934 0.0816666
v -0.02463013 -0.06402934 0.08166662
v 0.02129686 -0.08699286 0.0816666
v -0.02463013 -0.08699286 0.08166662
v 0.03333336 -0.05801117 -0.06833339
v -0.03666663 -0.05801117 -0.06833339
v -0.03001663 -0.06133604 -0.07833338
v 0.02668336 -0.06133604 -0.07833338
v -0.03001663 -0.08968616 -0.07833338
v 0.02668336 -0.08968616 -0.07833338
v 0.04833335 -0.1930112 0.00166662
v 0.04163462 -0.1930112 -0.02333337
v 0.04163456 -0.6230111 -0.0233333
v 0.04833329 -0.6230111 0.001666695
v 0.02333337 -0.1930112 -0.04163464
v 0.02333328 -0.6230111 -0.04163457
v -0.001666635 -0.1930112 -0.04833336
v -0.001666725 -0.6230111 -0.04833329
v -0.02666664 -0.1930112 -0.04163463
v -0.0266667 -0.6230111 -0.04163456
v -0.04496789 -0.1930112 -0.02333336
v -0.04496798 -0.6230111 -0.02333329
v -0.05166662 -0.1930112 0.001666635
v -0.05166671 -0.6230111 0.00166671
v -0.04496787 -0.1930112 0.02666664
v -0.04496795 -0.6230111 0.02666672
v -0.02666661 -0.1930112 0.04496789
v -0.0266667 -0.6230111 0.04496798
v -0.001666605 -0.1930112 0.05166661
v -0.001666695 -0.6230111 0.0516667
v 0.02333337 -0.1930112 0.04496789
v 0.02333328 -0.6230111 0.04496797
v 0.04163465 -0.1930112 0.0266666
v 0.04163456 -0.6230111 0.02666669
v 0.05482036 -0.6530111 -0.03094611
v 0.06355894 -0.6530111 0.001666706
v 0.03094608 -0.6530111 -0.05482037
v -0.001666754 -0.6530111 -0.06355891
v -0.03427956 -0.6530111 -0.05482034
v -0.05815381 -0.6530111 -0.0309461
v -0.06689239 -0.6530111 0.001666736
v -0.05815378 -0.6530111 0.03427957
v -0.03427953 -0.6530111 0.05815383
v -0.001666725 -0.6530111 0.06689242
v 0.03094611 -0.6530111 0.0581538
v 0.05482036 -0.6530111 0.03427954
v 0.05482036 -0.6830111 -0.03094611
v 0.06355894 -0.6830111 0.001666721
v 0.03094608 -0.6830111 -0.05482037
v -0.001666784 -0.6830111 -0.0635589
v -0.03427958 -0.6830111 -0.05482034
v -0.05815384 -0.6830111 -0.0309461
v -0.06689242 -0.6830111 0.00166674
v -0.05815381 -0.6830111 0.0342796
v -0.03427956 -0.6830111 0.05815386
v -0.001666754 -0.6830111 0.06689243
v 0.03094611 -0.6830111 0.0581538
v 0.05482036 -0.6830111 0.03427956
v 0.0353944 -0.703011 -0.01973061
v 0.0411278 -0.703011 0.00166668
v 0.01973051 -0.703011 -0.03539449
v -0.001666784 -0.703011 -0.04112785
v -0.02306405 -0.703011 -0.03539447
v -0.03872794 -0.703011 -0.0197306
v -0.04446134 -0.703011 0.001666695
v -0.03872791 -0.703011 0.023064
v -0.02306402 -0.703011 0.03872789
v -0.001666754 -0.703011 0.04446126
v 0.01973054 -0.703011 0.03872785
v 0.03539443 -0.703011 0.02306396
v 0.01423636 -0.783011 -0.002594613
v 0.002594471 -0.783011 -0.01423652
v -0.01330867 -0.783011 -0.009975288
v -0.0175699 -0.783011 0.005927872
v -0.00592798 -0.783011 0.01756978
v 0.009975135 -0.783011 0.01330853
v -0.06666662 -0.02301109 0.006666627
v -0.0666666 -0.02301109 -0.01333338
v -0.05666661 1.056989 -0.003333371
v -0.0566797 1.055576 -0.003320288
v 0.06333336 -0.02301109 0.006666627
v 0.06333336 1.05591 -0.003323384
v 0.06333336 1.056989 -0.003333371
v 0.06333336 1.056091 -0.003341682
v 0.06333336 -0.02301109 -0.01333337
v 0.00333339 -0.02301109 0.01666662
v 0.00333339 -0.02301109 -0.02333338
v -0.00325799 1.054935 0.01572499
v 0.00333339 1.055106 0.01666662
v 0.00333339 1.056337 -0.02333338
v -0.003148586 1.056795 -0.02240738
v 0.008893311 1.056717 -0.02240672
v 0.006086558 1.202135 -0.001724046
v 0.008972287 1.055151 0.01572681
v -0.003194124 1.056021 0.01573412
vn 0.4242902 -0.9055263 6.154213E-09
vn 0 0 0
vn 6.350531E-08 -0.4052914 -0.9141876
vn 0 1 0
vn 0 0 -1
vn 0 0 1
vn 0 0 0
vn -0.7247831 0.6889771 1.153971E-08
vn 0 0 0
vn -0.8800336 -0.4749114 -4.758584E-09
vn 0.157911 1.833298E-08 0.9874534
vn 0.1579114 0.9874533 -7.088641E-09
vn 0.1579107 3.259511E-10 -0.9874534
vn 1 0 0
vn 0.1890752 -0.2269542 0.9553755
vn 0.9842499 -0.1767824 1.409139E-09
vn 0.1890751 -0.226955 -0.9553753
vn 0.1579099 -0.9874535 -2.090079E-08
vn 0.7247873 0.6889727 5.747697E-08
vn 0 0 0
vn -0.4242928 -0.9055251 1.353714E-08
vn -0.2126529 -1.071119E-08 -0.9771278
vn -0.2126525 0.9771279 4.28009E-09
vn -0.2126525 2.169717E-08 0.9771279
vn 0.8885964 -0.45869 -2.053729E-12
vn -1 0 0
vn -0.2436924 -0.1638386 -0.9559137
vn -0.9988511 -0.04792211 -4.396198E-09
vn -0.2436918 -0.1638373 0.9559141
vn -0.2126541 -0.9771276 -1.746232E-08
vn -0.9141883 -0.4052898 -5.434823E-08
vn -5.230534E-08 -0.4052885 0.9141888
vn 0.9141881 -0.4052901 -1.650418E-09
vn 0 -1 0
vn -0.4916251 0.2022278 0.8469999
vn -0.9932466 -0.1160228 -1.174014E-07
vn -0.491625 0.2022278 -0.8469999
vn -0.4242915 0.9055256 1.231108E-08
vn 0.4916254 0.2022285 -0.8469995
vn 0.9932463 -0.116025 1.760015E-09
vn 0.4916253 0.2022285 0.8469995
vn 0.4242926 0.9055251 -1.064934E-08
vn 0 0 0
vn 0 0 1
vn 7.08094E-08 0.8568053 0.51564
vn 0 0 0
vn 0.6390359 4.881314E-09 0.7691769
vn 7.290899E-08 -0.8568009 0.5156474
vn -0.6390365 -1.523537E-08 0.7691764
vn 0 0 1
vn 0 0 0
vn 0 0 -1
vn -5.008325E-09 0.948924 -0.3155048
vn 0 0 0
vn -0.8326902 -3.745427E-08 -0.5537391
vn 1.372711E-08 -0.9489206 -0.3155148
vn 0.8326901 3.745429E-08 -0.5537392
vn 0 0 -1
vn 0.9659258 -1.683783E-07 -0.2588193
vn 0.7071068 -2.252025E-07 -0.707107
vn 0.2588189 -1.819477E-07 -0.9659261
vn -0.2588193 -9.893451E-08 -0.9659259
vn -0.7071069 3.416832E-08 -0.7071068
vn -0.9659261 1.671963E-07 -0.2588188
vn -0.9659258 2.371715E-07 0.2588194
vn -0.7071067 3.176033E-07 0.7071071
vn -0.2588189 2.503154E-07 0.9659259
vn 0.2588191 1.340916E-07 0.9659259
vn 0.7071071 1.855283E-08 0.7071066
vn 0.965926 -9.117942E-08 0.2588188
vn 1.748456E-07 1 -1.748456E-07
vn 0.867314 0.4401803 -0.232396
vn 0.6349177 0.44018 -0.6349183
vn 0.2323953 0.4401797 -0.8673144
vn -0.232396 0.4401796 -0.8673143
vn -0.6349177 0.4401802 -0.6349182
vn -0.8673139 0.4401806 -0.2323959
vn -0.8673136 0.4401807 0.2323967
vn -0.6349178 0.4401807 0.6349177
vn -0.232396 0.4401814 0.8673135
vn 0.2323969 0.440181 0.8673134
vn 0.6349179 0.4401806 0.6349177
vn 0.8673138 0.4401807 0.2323961
vn 0.9659259 -1.001247E-07 -0.258819
vn 0.7071063 6.075729E-08 -0.7071075
vn 0.2588176 -3.691878E-07 -0.9659263
vn -0.2588189 -2.306228E-08 -0.9659259
vn -0.7071068 6.357222E-07 -0.707107
vn -0.9659259 9.845161E-07 -0.2588188
vn -0.9659258 1.128737E-06 0.2588196
vn -0.7071071 1.105864E-06 0.7071066
vn -0.2588193 1.003679E-06 0.9659259
vn 0.2588201 3.711752E-07 0.9659257
vn 0.7071068 2.619376E-07 0.707107
vn 0.9659259 6.180147E-09 0.2588189
vn 0.6551659 -0.7348056 -0.1755515
vn 0.479615 -0.7348051 -0.4796154
vn 0.1755507 -0.7348047 -0.6551672
vn -0.1755515 -0.7348048 -0.6551669
vn -0.4796152 -0.7348049 -0.4796157
vn -0.6551666 -0.7348052 -0.1755512
vn -0.6551656 -0.734806 0.1755516
vn -0.4796143 -0.7348062 0.4796143
vn -0.1755504 -0.7348065 0.6551653
vn 0.1755515 -0.7348065 0.6551651
vn 0.4796139 -0.7348064 0.4796144
vn 0.6551655 -0.7348062 0.1755511
vn 0.9223751 -0.2968854 -0.2471504
vn 0.6697804 -0.3206074 -0.66978
vn 0.2471485 -0.2968847 -0.9223759
vn -0.2451571 -0.3206071 -0.9149368
vn -0.6752255 -0.2968848 -0.675226
vn -0.9149368 -0.3206078 -0.2451562
vn -0.9223749 -0.2968856 0.247151
vn -0.6697797 -0.3206084 0.6697803
vn -0.2471497 -0.2968861 0.9223751
vn 0.2451579 -0.3206085 0.9149361
vn 0.6752251 -0.2968861 0.6752259
vn 0.9149365 -0.3206084 0.2451562
vn -1.748456E-07 -1 1.748456E-07
vn -0.9999571 0.009258859 -8.144402E-07
vn 1 5.260113E-10 -9.884174E-08
vn -2.86561E-08 -1 2.430046E-07
vn -0.1414213 2.841525E-10 0.9899495
vn -0.1414213 -3.451236E-10 -0.9899495
vn 0.1643991 8.435119E-10 -0.986394
vn 0.162302 0.1194761 0.9794812
vn -0.331245 0.1535338 -0.9309694
vn 0.3305975 0.008738255 -0.9437314
vn 0.3305974 0.008738254 0.9437314
vn -0.335657 0.01182933 0.9419101
vn 0.3305975 0.008738255 -0.9437314
vn 0.1532714 0.1420469 -0.9779215
vn -0.1296178 0.1477696 -0.9804914
vn -0.3356571 0.01182933 -0.9419099
vn -0.335657 0.01182933 0.9419101
vn -0.1414213 2.841525E-10 0.9899495
vn 0.164399 -2.410074E-10 0.986394
vn 0.3305974 0.008738254 0.9437314
vn 0.3250213 0.1177866 0.9383429
vn -0.3307709 0.132647 0.9343423
vn -0.1230597 0.1254398 0.9844396
vn 0.3268077 0.1392595 -0.9347746
usemtl mat12
f 4//1 3//1 2//1 1//1
f 9//2 8//2 7//2 6//2 5//2
f 11//3 10//3 5//3 1//3
f 7//4 14//4 13//4 12//4
f 5//5 6//5 17//5 16//5 15//5 1//5
f 22//6 21//6 20//6 19//6 18//6 2//6
f 3//7 23//7 13//7 22//7 2//7
f 25//8 24//8 12//8 13//8
f 26//9 4//9 1//9 15//9 12//9
f 28//10 27//10 3//10 4//10
f 30//11 29//11 23//11 3//11
f 29//12 31//12 26//12 23//12
f 31//13 32//13 4//13 26//13
f 31//14 29//14 30//14 32//14
f 27//15 33//15 30//15 3//15
f 33//16 34//16 32//16 30//16
f 34//17 28//17 4//17 32//17
f 34//18 33//18 27//18 28//18
f 36//19 35//19 14//19 7//19
f 38//20 37//20 18//20 19//20 14//20
f 37//21 9//21 5//21 18//21
f 40//22 39//22 8//22 9//22
f 39//23 41//23 38//23 8//23
f 41//24 42//24 37//24 38//24
f 44//25 43//25 9//25 37//25
f 42//26 41//26 39//26 40//26
f 43//27 45//27 40//27 9//27
f 45//28 46//28 42//28 40//28
f 46//29 44//29 37//29 42//29
f 46//30 45//30 43//30 44//30
f 10//31 47//31 18//31 5//31
f 47//32 48//32 2//32 18//32
f 48//33 11//33 1//33 2//33
f 48//34 47//34 10//34 11//34
f 35//35 49//35 38//35 14//35
f 49//36 50//36 8//36 38//36
f 50//37 36//37 7//37 8//37
f 50//38 49//38 35//38 36//38
f 24//39 51//39 26//39 12//39
f 51//40 52//40 23//40 26//40
f 52//41 25//41 13//41 23//41
f 52//42 51//42 24//42 25//42
f 20//43 53//43 19//43
f 53//44 54//44 22//44 13//44 14//44 19//44
f 21//46 22//46 54//46
f 16//51 59//51 15//51
f 59//52 60//52 6//52 7//52 12//52 15//52
f 17//54 6//54 60//54
f 90//72 89//72 67//72 68//72
f 89//73 91//73 70//73 67//73
f 91//74 92//74 72//74 70//74
f 92//75 93//75 74//75 72//75
f 93//76 94//76 76//76 74//76
f 94//77 95//77 78//77 76//77
f 95//78 96//78 80//78 78//78
f 96//79 97//79 82//79 80//79
f 97//80 98//80 84//80 82//80
f 98//81 99//81 86//81 84//81
f 99//82 100//82 88//82 86//82
f 100//83 90//83 68//83 88//83
f 102//84 101//84 89//84 90//84
f 101//85 103//85 91//85 89//85
f 103//86 104//86 92//86 91//86
f 104//87 105//87 93//87 92//87
f 105//88 106//88 94//88 93//88
f 106//89 107//89 95//89 94//89
f 107//90 108//90 96//90 95//90
f 108//91 109//91 97//91 96//91
f 109//92 110//92 98//92 97//92
f 110//93 111//93 99//93 98//93
f 111//94 112//94 100//94 99//94
f 112//95 102//95 90//95 100//95
f 114//96 113//96 101//96 102//96
f 113//97 115//97 103//97 101//97
f 115//98 116//98 104//98 103//98
f 116//99 117//99 105//99 104//99
f 117//100 118//100 106//100 105//100
f 118//101 119//101 107//101 106//101
f 119//102 120//102 108//102 107//102
f 120//103 121//103 109//103 108//103
f 121//104 122//104 110//104 109//104
f 122//105 123//105 111//105 110//105
f 123//106 124//106 112//106 111//106
f 124//107 114//107 102//107 112//107
usemtl mat9
f 56//45 55//45 54//45 53//45
f 58//49 56//49 53//49 20//49
f 62//53 61//53 60//53 59//53
f 64//57 62//57 59//57 16//57
usemtl mat10
f 55//47 57//47 21//47 54//47
f 57//48 58//48 20//48 21//48
f 58//50 57//50 55//50 56//50
f 61//55 63//55 17//55 60//55
f 63//56 64//56 16//56 17//56
f 64//58 63//58 61//58 62//58
f 125//108 113//108 114//108
f 125//109 126//109 115//109 113//109
f 126//110 116//110 115//110
f 126//111 127//111 117//111 116//111
f 127//112 118//112 117//112
f 127//113 128//113 119//113 118//113
f 128//114 120//114 119//114
f 128//115 129//115 121//115 120//115
f 129//116 122//116 121//116
f 129//117 130//117 123//117 122//117
f 130//118 124//118 123//118
f 130//119 125//119 114//119 124//119
f 130//120 129//120 128//120 127//120 126//120 125//120
usemtl mat20
f 68//59 67//59 66//59 65//59
f 67//60 70//60 69//60 66//60
f 70//61 72//61 71//61 69//61
f 72//62 74//62 73//62 71//62
f 74//63 76//63 75//63 73//63
f 76//64 78//64 77//64 75//64
f 78//65 80//65 79//65 77//65
f 80//66 82//66 81//66 79//66
f 82//67 84//67 83//67 81//67
f 84//68 86//68 85//68 83//68
f 86//69 88//69 87//69 85//69
f 88//70 68//70 65//70 87//70
usemtl mat21
f 65//71 66//71 69//71 71//71 73//71 75//71 77//71 79//71 81//71 83//71 85//71 87//71
f 132//123 141//123 139//123 135//123 140//123 131//123
usemtl mat15
f 134//121 133//121 132//121 131//121
f 139//122 138//122 137//122 136//122 135//122
f 140//124 143//124 142//124 131//124
f 145//125 144//125 141//125 132//125
f 144//126 146//126 139//126 141//126
f 143//127 148//127 147//127
f 145//128 133//128 147//128
f 146//129 138//129 139//129
f 148//130 136//130 137//130
f 142//131 149//131 134//131 131//131
f 146//132 137//132 138//132
f 144//133 147//133 146//133
f 145//134 147//134 144//134
f 145//135 132//135 133//135
f 149//136 133//136 134//136
f 143//137 149//137 142//137
f 143//138 140//138 135//138 148//138
f 148//139 135//139 136//139
f 137//140 147//140 148//140
f 149//141 147//141 133//141
f 143//142 147//142 149//142
f 146//143 147//143 137//143
